<svg xmlns="http://www.w3.org/2000/svg" xmlns:xlink="http://www.w3.org/1999/xlink" viewBox="0,0,255.99704,255.99704" width="100px" height="100px" fill-rule="nonzero"><g transform="translate(-5.11994,-5.11994) scale(1.04,1.04)"><g fill-opacity="0" fill="#dddddd" fill-rule="nonzero" stroke="none" stroke-width="1" stroke-linecap="butt" stroke-linejoin="miter" stroke-miterlimit="10" stroke-dasharray="" stroke-dashoffset="0" font-family="none" font-weight="none" font-size="none" text-anchor="none" style="mix-blend-mode: normal"><path d="M4.92302,251.07402v-246.151h246.151v246.151z" id="bgRectangle"></path></g><g fill="none" fill-rule="nonzero" stroke="none" stroke-width="1" stroke-linecap="butt" stroke-linejoin="miter" stroke-miterlimit="10" stroke-dasharray="" stroke-dashoffset="0" font-family="none" font-weight="none" font-size="none" text-anchor="none" style="mix-blend-mode: normal"><g transform="translate(5.7478,3.83911) scale(2.56,2.56)"><path d="M30.066,80.269l-14.895,1.861l5.586,-10.24l-13.033,-3.724l11.171,-8.378l-13.033,-13.034l13.033,-3.723l-14.895,-20.481l21.412,3.724l-4.655,-23.274l22.343,14.895l14.895,-14.895l1.862,19.55l24.204,-5.586l-9.309,21.412l16.757,7.448l-15.826,8.378l12.102,8.379l-10.24,4.654l5.585,11.172l-12.102,0.931l0.931,6.516l-25.135,-6.516z" fill="#3cc0e9"></path><path d="M71.959,86.854c-0.084,0 -0.168,-0.011 -0.251,-0.032l-24.985,-6.478l-16.566,0.92l-14.861,1.858c-0.369,0.044 -0.739,-0.119 -0.95,-0.43c-0.212,-0.31 -0.231,-0.712 -0.052,-1.041l4.987,-9.145l-11.831,-3.38c-0.365,-0.104 -0.64,-0.407 -0.709,-0.78c-0.069,-0.374 0.08,-0.754 0.384,-0.981l10.249,-7.687l-12.219,-12.217c-0.251,-0.25 -0.35,-0.615 -0.261,-0.958c0.089,-0.343 0.353,-0.613 0.693,-0.71l11.657,-3.331l-14.053,-19.324c-0.239,-0.33 -0.256,-0.771 -0.04,-1.117c0.215,-0.346 0.621,-0.527 1.02,-0.457l19.975,3.474l-4.37,-21.842c-0.079,-0.397 0.088,-0.802 0.424,-1.027c0.337,-0.224 0.774,-0.225 1.111,-0.001l21.661,14.44l14.316,-14.315c0.273,-0.274 0.679,-0.366 1.046,-0.234c0.364,0.131 0.62,0.46 0.656,0.846l1.754,18.414l23.093,-5.329c0.365,-0.086 0.752,0.045 0.993,0.335c0.242,0.29 0.299,0.691 0.148,1.038l-8.914,20.502l15.851,7.045c0.35,0.155 0.58,0.497 0.593,0.879c0.014,0.382 -0.192,0.739 -0.531,0.918l-14.372,7.609l10.75,7.441c0.296,0.205 0.459,0.553 0.427,0.911c-0.032,0.359 -0.255,0.673 -0.582,0.821l-9.296,4.226l5.122,10.243c0.148,0.298 0.14,0.65 -0.024,0.939c-0.164,0.29 -0.461,0.479 -0.793,0.505l-11.039,0.85l0.78,5.46c0.047,0.331 -0.074,0.664 -0.324,0.887c-0.186,0.167 -0.424,0.255 -0.667,0.255zM46.823,78.338c0.085,0 0.169,0.011 0.251,0.032l23.683,6.14l-0.719,-5.03c-0.039,-0.274 0.037,-0.552 0.21,-0.768c0.173,-0.216 0.428,-0.35 0.703,-0.371l10.62,-0.817l-4.921,-9.841c-0.121,-0.243 -0.139,-0.524 -0.048,-0.781c0.091,-0.256 0.281,-0.464 0.528,-0.576l8.636,-3.926l-10.653,-7.375c-0.287,-0.199 -0.449,-0.533 -0.429,-0.882c0.02,-0.349 0.222,-0.661 0.53,-0.824l14.009,-7.416l-14.877,-6.613c-0.502,-0.223 -0.729,-0.809 -0.511,-1.313l8.519,-19.592l-22.272,5.14c-0.28,0.064 -0.575,0.005 -0.81,-0.164c-0.233,-0.168 -0.383,-0.429 -0.41,-0.716l-1.66,-17.436l-13.395,13.393c-0.337,0.338 -0.866,0.39 -1.262,0.125l-20.334,-13.556l4.182,20.906c0.064,0.324 -0.034,0.658 -0.265,0.895c-0.229,0.236 -0.563,0.345 -0.887,0.287l-18.98,-3.301l13.443,18.484c0.192,0.264 0.243,0.605 0.137,0.914c-0.106,0.309 -0.356,0.546 -0.671,0.636l-11.399,3.257l11.831,11.832c0.205,0.205 0.311,0.489 0.29,0.778c-0.021,0.289 -0.165,0.555 -0.397,0.729l-9.561,7.17l11.097,3.17c0.292,0.084 0.53,0.296 0.648,0.575c0.117,0.28 0.101,0.599 -0.045,0.865l-4.651,8.528l12.959,-1.62c0.022,-0.003 0.046,-0.005 0.068,-0.006l16.757,-0.931c0.019,0 0.038,-0.001 0.056,-0.001z" fill="#000000"></path><circle cx="27" cy="64" r="6" fill="#fed5b3"></circle><path d="M27,71c-3.859,0 -7,-3.141 -7,-7c0,-3.859 3.141,-7 7,-7c3.859,0 7,3.141 7,7c0,3.859 -3.141,7 -7,7zM27,59c-2.757,0 -5,2.243 -5,5c0,2.757 2.243,5 5,5c2.757,0 5,-2.243 5,-5c0,-2.757 -2.243,-5 -5,-5z" fill="#000000"></path><circle cx="68" cy="64" r="6" fill="#fed5b3"></circle><path d="M68,71c-3.859,0 -7,-3.141 -7,-7c0,-3.859 3.141,-7 7,-7c3.859,0 7,3.141 7,7c0,3.859 -3.141,7 -7,7zM68,59c-2.757,0 -5,2.243 -5,5c0,2.757 2.243,5 5,5c2.757,0 5,-2.243 5,-5c0,-2.757 -2.243,-5 -5,-5z" fill="#000000"></path><path d="M26.926,41.645c0,0 -3.706,29.112 3.706,42.26c7.412,13.148 28.721,14.087 34.28,-0.939c5.559,-15.026 4.328,-31.689 2.779,-43.199c-2.779,-20.66 -38.912,-27.234 -40.765,1.878z" fill="#fed5b3"></path><path d="M48.462,95c-7.681,0 -15.044,-4.118 -18.7,-10.604c-7.433,-13.184 -4.032,-41.25 -3.831,-42.845c0.948,-14.684 10.381,-20.238 18.897,-20.537c10.208,-0.361 22.245,6.659 23.854,18.62c1.525,11.339 2.893,28.204 -2.833,43.679c-2.475,6.691 -8.342,11.035 -15.692,11.62c-0.565,0.046 -1.132,0.067 -1.695,0.067zM45.592,23c-0.232,0 -0.463,0.004 -0.693,0.012c-9.905,0.348 -16.251,7.336 -16.974,18.696c-0.001,0.021 -0.003,0.042 -0.006,0.063c-0.037,0.288 -3.578,28.936 3.585,41.642c3.549,6.296 10.975,10.12 18.494,9.526c6.651,-0.53 11.746,-4.292 13.977,-10.32c5.569,-15.057 4.222,-31.592 2.725,-42.719c-1.424,-10.585 -11.918,-16.9 -21.108,-16.9zM26.927,41.645h0.01z" fill="#000000"></path><path d="M31.657,46.5c-1.012,1.639 -1.444,3.674 -0.957,5.832c0.663,2.942 3.078,5.277 6.042,5.836c4.942,0.93 9.258,-2.835 9.258,-7.608c0,-1.491 -0.428,-2.878 -1.157,-4.06z" fill="#ffffff"></path><path d="M38.233,58.807c-0.525,0 -1.056,-0.049 -1.584,-0.148c-3.146,-0.593 -5.732,-3.092 -6.437,-6.217c-0.485,-2.15 -0.123,-4.354 1.019,-6.204c0.092,-0.148 0.252,-0.238 0.426,-0.238h13.186c0.174,0 0.334,0.09 0.426,0.237c0.806,1.305 1.231,2.8 1.231,4.322c0,2.464 -1.089,4.78 -2.987,6.354c-1.492,1.236 -3.355,1.894 -5.28,1.894zM31.942,47c-0.893,1.576 -1.161,3.419 -0.755,5.221c0.618,2.743 2.888,4.935 5.647,5.455c2.167,0.41 4.371,-0.149 6.039,-1.532c1.669,-1.384 2.626,-3.419 2.626,-5.584c0,-1.245 -0.325,-2.47 -0.942,-3.56z" fill="#000000"></path><path d="M34.224,43.347c-2.153,1.315 -3.612,3.652 -3.709,6.338c5.174,-1.36 10.318,-1.565 15.433,-0.591c-0.254,-2.254 -1.472,-4.215 -3.233,-5.46" fill="#fed5b3"></path><path d="M30.515,50.185c-0.112,0 -0.223,-0.038 -0.313,-0.109c-0.123,-0.099 -0.192,-0.25 -0.188,-0.409c0.101,-2.775 1.576,-5.297 3.948,-6.747c0.234,-0.144 0.542,-0.07 0.688,0.166c0.144,0.236 0.069,0.543 -0.166,0.688c-1.891,1.155 -3.134,3.086 -3.414,5.255c4.775,-1.162 9.569,-1.347 14.272,-0.552c-0.373,-1.781 -1.412,-3.372 -2.917,-4.435c-0.226,-0.159 -0.279,-0.471 -0.12,-0.697c0.161,-0.226 0.476,-0.278 0.696,-0.12c1.926,1.36 3.181,3.479 3.442,5.813c0.018,0.158 -0.041,0.314 -0.157,0.422c-0.117,0.108 -0.277,0.152 -0.434,0.125c-4.999,-0.952 -10.117,-0.756 -15.212,0.583c-0.04,0.012 -0.083,0.017 -0.125,0.017z" fill="#000000"></path><path d="M50.657,46.5c-1.012,1.639 -1.444,3.674 -0.957,5.832c0.663,2.942 3.078,5.277 6.042,5.836c4.942,0.93 9.258,-2.835 9.258,-7.608c0,-1.491 -0.428,-2.878 -1.157,-4.06z" fill="#ffffff"></path><path d="M57.233,58.807c-0.525,0 -1.056,-0.049 -1.584,-0.148c-3.146,-0.593 -5.732,-3.092 -6.437,-6.217c-0.485,-2.15 -0.123,-4.354 1.019,-6.204c0.092,-0.148 0.252,-0.238 0.426,-0.238h13.186c0.174,0 0.334,0.09 0.426,0.237c0.806,1.305 1.231,2.8 1.231,4.322c0,2.464 -1.089,4.78 -2.987,6.354c-1.492,1.236 -3.355,1.894 -5.28,1.894zM50.942,47c-0.893,1.576 -1.161,3.419 -0.755,5.221c0.618,2.743 2.888,4.935 5.647,5.455c2.169,0.41 4.371,-0.149 6.039,-1.532c1.669,-1.384 2.626,-3.419 2.626,-5.584c0,-1.245 -0.325,-2.47 -0.942,-3.56z" fill="#000000"></path><path d="M53.224,43.347c-2.153,1.315 -3.612,3.652 -3.709,6.338c5.174,-1.36 10.318,-1.565 15.433,-0.591c-0.254,-2.254 -1.472,-4.215 -3.233,-5.46" fill="#fed5b3"></path><path d="M49.515,50.185c-0.112,0 -0.223,-0.038 -0.313,-0.109c-0.123,-0.099 -0.192,-0.25 -0.188,-0.409c0.101,-2.775 1.576,-5.297 3.948,-6.747c0.233,-0.144 0.542,-0.07 0.688,0.166c0.144,0.236 0.069,0.543 -0.166,0.688c-1.891,1.155 -3.134,3.086 -3.414,5.255c4.775,-1.162 9.569,-1.347 14.272,-0.552c-0.373,-1.781 -1.412,-3.372 -2.917,-4.435c-0.226,-0.159 -0.279,-0.471 -0.12,-0.697c0.161,-0.226 0.475,-0.278 0.696,-0.12c1.926,1.36 3.181,3.479 3.442,5.813c0.018,0.158 -0.041,0.314 -0.157,0.422c-0.117,0.108 -0.278,0.152 -0.434,0.125c-4.999,-0.952 -10.117,-0.756 -15.212,0.583c-0.04,0.012 -0.083,0.017 -0.125,0.017z" fill="#000000"></path><circle cx="38.5" cy="49.5" r="1.5" fill="#000000"></circle><circle cx="57.5" cy="49.5" r="1.5" fill="#000000"></circle><path d="M37.235,62.651c-3.374,0 -5.608,-1.969 -5.729,-2.078c-0.205,-0.185 -0.221,-0.499 -0.037,-0.705c0.185,-0.204 0.501,-0.22 0.706,-0.038c0.142,0.126 3.501,3.062 8.14,1.206c0.255,-0.104 0.547,0.022 0.649,0.278c0.102,0.256 -0.021,0.547 -0.278,0.649c-1.241,0.498 -2.401,0.688 -3.451,0.688z" fill="#000000"></path><path d="M57.105,62.651c-1.05,0 -2.21,-0.19 -3.45,-0.688c-0.257,-0.103 -0.381,-0.394 -0.278,-0.649c0.103,-0.255 0.394,-0.382 0.649,-0.278c4.656,1.861 8.104,-1.175 8.139,-1.205c0.205,-0.187 0.521,-0.169 0.706,0.036c0.186,0.205 0.169,0.521 -0.036,0.706c-0.121,0.11 -2.356,2.078 -5.73,2.078z" fill="#000000"></path><path d="M50.065,30.751c-0.241,0 -0.453,-0.175 -0.493,-0.421c-0.043,-0.272 0.143,-0.529 0.415,-0.573c1.195,-0.192 2.331,-0.44 3.375,-0.739c0.269,-0.075 0.543,0.078 0.618,0.344c0.076,0.265 -0.077,0.542 -0.343,0.618c-1.082,0.309 -2.257,0.566 -3.492,0.764c-0.026,0.006 -0.053,0.007 -0.08,0.007z" fill="#000000"></path><g fill="#000000"><path d="M43.354,31.251c-2.83,0 -4.803,-0.241 -4.916,-0.255c-0.273,-0.034 -0.468,-0.284 -0.434,-0.558c0.033,-0.275 0.297,-0.469 0.558,-0.434c0.038,0.005 3.797,0.464 8.332,0.115c0.251,-0.025 0.516,0.184 0.536,0.46c0.021,0.275 -0.185,0.516 -0.46,0.537c-1.295,0.099 -2.52,0.135 -3.616,0.135z"></path></g><g fill="#000000"><path d="M47,69.75c-0.805,0 -1.576,-0.415 -2.119,-1.138c-0.576,-0.768 -0.881,-1.844 -0.881,-3.112v-6c0,-0.276 0.224,-0.5 0.5,-0.5c0.276,0 0.5,0.224 0.5,0.5v6c0,2.233 1.037,3.25 2,3.25c0.963,0 2,-1.017 2,-3.25v-6c0,-0.276 0.224,-0.5 0.5,-0.5c0.276,0 0.5,0.224 0.5,0.5v6c0,2.92 -1.555,4.25 -3,4.25z"></path></g><g fill="#000000"><path d="M58.5,80c-0.064,0 -0.13,-0.013 -0.192,-0.038c-11.649,-4.856 -22.494,-0.055 -22.601,-0.007c-0.25,0.114 -0.547,0.003 -0.662,-0.248c-0.114,-0.252 -0.003,-0.548 0.248,-0.662c0.111,-0.052 11.337,-5.029 23.399,-0.007c0.255,0.106 0.375,0.399 0.27,0.654c-0.08,0.193 -0.267,0.308 -0.462,0.308z"></path></g><g><path d="M19.866,36.878l2.049,2.675" fill="#bebbb2"></path><path d="M21.915,40.053c-0.15,0 -0.299,-0.067 -0.396,-0.196l-2.05,-2.676c-0.168,-0.219 -0.127,-0.533 0.093,-0.701c0.22,-0.167 0.533,-0.126 0.7,0.093l2.05,2.676c0.168,0.219 0.127,0.533 -0.093,0.701c-0.091,0.07 -0.198,0.103 -0.304,0.103z" fill="#000000"></path></g><g><path d="M12.723,27.553l5.131,6.699" fill="#bebbb2"></path><path d="M17.854,34.751c-0.15,0 -0.299,-0.067 -0.396,-0.196l-5.131,-6.698c-0.168,-0.219 -0.127,-0.533 0.093,-0.701c0.219,-0.167 0.533,-0.126 0.7,0.093l5.131,6.698c0.168,0.219 0.127,0.533 -0.093,0.701c-0.091,0.07 -0.197,0.103 -0.304,0.103z" fill="#000000"></path></g><g><path d="M27.591,17.022l1.6,6.957" fill="#bebbb2"></path><path d="M29.191,24.479c-0.229,0 -0.434,-0.157 -0.487,-0.388l-1.6,-6.956c-0.062,-0.269 0.106,-0.537 0.375,-0.599c0.274,-0.062 0.537,0.107 0.6,0.375l1.6,6.956c0.062,0.269 -0.106,0.537 -0.375,0.599c-0.038,0.009 -0.075,0.013 -0.113,0.013z" fill="#000000"></path></g><g><path d="M26.255,11.213l0.632,2.746" fill="#bebbb2"></path><path d="M26.887,14.459c-0.229,0 -0.434,-0.156 -0.487,-0.388l-0.632,-2.746c-0.062,-0.27 0.106,-0.538 0.375,-0.6c0.273,-0.061 0.537,0.106 0.6,0.375l0.632,2.746c0.062,0.27 -0.106,0.538 -0.375,0.6c-0.039,0.009 -0.076,0.013 -0.113,0.013z" fill="#000000"></path></g><g><path d="M40.737,40.568c-2.538,0 -5.228,-0.158 -8.041,-0.591c-1.092,-0.168 -1.841,-1.189 -1.673,-2.281c0.169,-1.092 1.198,-1.844 2.28,-1.672c6.612,1.016 12.402,0.409 17.511,-0.127c4.669,-0.491 8.7,-0.915 11.861,0.222c1.04,0.374 1.58,1.519 1.206,2.558c-0.374,1.039 -1.519,1.579 -2.558,1.207c-2.302,-0.827 -5.912,-0.448 -10.093,-0.008c-3.075,0.321 -6.606,0.692 -10.493,0.692z" fill="#3cc0e9"></path><path d="M40.737,41.068c-2.852,0 -5.507,-0.195 -8.117,-0.597c-1.362,-0.209 -2.301,-1.489 -2.091,-2.851c0.103,-0.662 0.458,-1.244 1.001,-1.64c0.538,-0.394 1.194,-0.558 1.852,-0.45c6.547,1.006 12.303,0.402 17.381,-0.131c4.73,-0.498 8.815,-0.926 12.082,0.248c0.629,0.226 1.132,0.683 1.417,1.287c0.284,0.604 0.316,1.283 0.091,1.912c-0.467,1.296 -1.896,1.973 -3.197,1.508c-2.197,-0.79 -5.753,-0.416 -9.871,0.018c-3.12,0.327 -6.64,0.696 -10.548,0.696zM32.994,36.499c-0.313,0 -0.616,0.099 -0.875,0.288c-0.326,0.238 -0.54,0.588 -0.602,0.985c-0.126,0.817 0.438,1.584 1.255,1.71c2.56,0.394 5.164,0.585 7.965,0.585c3.854,0 7.348,-0.366 10.429,-0.69c4.252,-0.448 7.914,-0.833 10.327,0.034c0.778,0.279 1.639,-0.127 1.918,-0.905c0.136,-0.377 0.116,-0.784 -0.055,-1.146c-0.171,-0.362 -0.473,-0.637 -0.85,-0.772c-3.054,-1.098 -7.034,-0.68 -11.639,-0.195c-5.14,0.541 -10.962,1.151 -17.641,0.125c-0.077,-0.013 -0.155,-0.019 -0.232,-0.019z" fill="#000000"></path></g></g></g></g></svg>